<?xml version="1.0" encoding="utf-8"?>
<!-- Generator: Adobe Illustrator 21.0.2, SVG Export Plug-In . SVG Version: 6.00 Build 0)  -->
<svg version="1.1" id="Layer_1" xmlns="http://www.w3.org/2000/svg" xmlns:xlink="http://www.w3.org/1999/xlink" x="0px" y="0px"
	 viewBox="0 0 210 60" style="enable-background:new 0 0 210 60;" xml:space="preserve">
<style type="text/css">
	.st0{fill:#1A1A1A;}
	.st1{fill:#58595B;}
	.st2{fill:#333333;}
	.st3{fill:#4D4D4D;}
</style>
<g>
	<polygon class="st0" points="156.4,19.1 156.4,3.5 150.9,6.6 150.9,6.6 150.9,16 150.9,16 	"/>
	<polygon class="st1" points="10.4,9.7 10.4,9.7 10.4,9.7 	"/>
	<path class="st2" d="M199.6,22.2l-5.4,3.1l5.4,3.1l0,0l5.4-3.1L199.6,22.2z"/>
	<polygon class="st0" points="199.6,50.3 194.2,53.4 199.6,56.5 	"/>
	<polygon class="st0" points="199.6,44 199.6,44 199.6,44 199.6,37.8 183.4,28.4 183.4,34.7 	"/>
	<polygon class="st2" points="199.6,16 186.1,8.2 172.6,16 172.6,16 178,19.1 186.1,14.4 186.1,14.4 186.1,14.4 194.2,19.1 	"/>
	<polygon class="st0" points="199.6,22.2 199.6,16 194.2,19.1 194.2,25.3 	"/>
	<polygon class="st2" points="199.6,37.8 205,34.7 188.8,25.3 188.8,25.3 183.4,28.4 	"/>
	<path class="st0" d="M186.1,51.8L186.1,51.8L172.6,44v0V16v0l13.5-7.8V1.9l-18.9,10.9v34.3l18.9,10.9V51.8z"/>
	<polygon class="st2" points="172.6,44 172.6,44 186.1,51.8 199.6,44 194.2,40.9 186.1,45.6 178,40.9 	"/>
	<polygon class="st3" points="172.6,16 172.6,44 178,40.9 178,19.1 	"/>
	<polygon class="st0" points="156.4,50.3 150.9,53.4 156.4,56.5 161.8,53.4 161.8,53.4 	"/>
	<path class="st3" d="M156.4,3.5v15.6l-27-15.6l-5.4,3.1v0l32.4,18.7v0v25l5.4,3.1V6.6L156.4,3.5z"/>
	<path class="st0" d="M156.4,25.3L156.4,25.3L123.9,6.6v46.8l5.4,3.1V16l21.6,12.5L156.4,25.3z"/>
	<polygon class="st2" points="156.4,50.3 156.4,25.3 150.9,28.4 150.9,28.4 150.9,53.4 	"/>
	<path class="st2" d="M129.3,16v40.6l5.4-3.1V19.1L129.3,16z"/>
	<polygon class="st3" points="99.6,1.9 80.7,12.8 80.7,12.8 86.1,16 86.1,16 86.1,16 99.6,8.2 113.1,16 113.1,16 113.1,16 
		118.5,12.8 	"/>
	<polygon class="st0" points="113.1,34.7 107.7,37.8 107.7,53.4 107.7,53.4 113.1,56.5 	"/>
	<polygon class="st3" points="107.7,25.3 91.5,34.7 91.5,40.9 113.1,28.4 113.1,28.4 	"/>
	<polygon class="st0" points="99.6,14.4 107.7,19.1 107.7,25.3 113.1,28.4 113.1,16 113.1,16 99.6,8.2 	"/>
	<polygon class="st0" points="86.1,16 86.1,16 80.7,12.8 80.7,53.4 86.1,56.5 	"/>
	<path class="st2" d="M48.2,53.4l5.4,3.1h0v0l24.3-14h0v-6.2v0L48.2,53.4z"/>
	<path class="st0" d="M72.6,33.1L53.6,44V9.7l-5.4-3.1v46.8L78,36.2L72.6,33.1z"/>
	<path class="st2" d="M53.6,9.7V44l5.4-3.1h0v0V6.6l0,0L53.6,9.7z"/>
	<polygon class="st3" points="53.6,9.7 59.1,6.6 53.6,3.5 48.2,6.6 	"/>
	<polygon class="st0" points="37.4,50.3 32,53.4 37.4,56.5 42.8,53.4 42.8,53.4 	"/>
	<polygon class="st3" points="37.4,3.5 32,6.6 32,6.6 37.4,9.7 42.8,6.6 	"/>
	<path class="st2" d="M37.4,9.7v9.4l-10.8,6.2l5.4,3.1l10.8-6.2V6.6L37.4,9.7z"/>
	<polygon class="st0" points="37.4,19.1 37.4,9.7 32,6.6 32,16 32,16 	"/>
	<polygon class="st2" points="37.4,50.3 37.4,37.8 32,40.9 32,40.9 32,53.4 	"/>
	<path class="st3" d="M26.6,25.3l10.8-6.2L32,16l-16.2,9.4v0v6.2l5.4-3.1l16.2,9.4v0v12.5l5.4,3.1V34.7L26.6,25.3z"/>
	<path class="st2" d="M21.2,28.4l-5.4,3.1v-25l-5.4,3.1l0,0v46.8l5.4-3.1h0V37.8l5.4-3.1V28.4z"/>
	<polygon class="st0" points="10.4,9.7 10.4,9.7 5,6.6 5,53.4 5,53.4 10.4,56.5 	"/>
	<polygon class="st3" points="10.4,9.7 10.4,9.7 15.8,6.6 10.4,3.5 5,6.6 	"/>
	<path class="st2" d="M113.1,16L113.1,16l0,12.5v0L91.5,40.9V19.1l8.1-4.7V8.2L86.1,16h0v40.6l5.4-3.1v-6.2l21.6-12.5v21.8l5.4-3.1
		v0V12.8L113.1,16z"/>
	<polygon class="st0" points="37.4,37.8 37.4,37.8 21.2,28.4 21.2,34.7 21.2,34.7 32,40.9 	"/>
	<polygon class="st3" points="186.1,1.9 186.1,8.2 199.6,16 199.6,22.2 205,25.3 205,12.8 205,12.8 	"/>
	<path class="st3" d="M199.6,37.8V44v0l-13.5,7.8v0v6.2h0l13.5-7.8v6.2l5.4-3.1v0V34.7L199.6,37.8z"/>
</g>
</svg>
