<svg id="Layer_1" data-name="Layer 1" xmlns="http://www.w3.org/2000/svg" viewBox="0 0 32 32"><defs><style>.cls-1,.cls-2{fill:#fff;}.cls-2{fill-rule:evenodd;}</style></defs><title>info-icon</title><path class="cls-1" d="M16,2A14,14,0,1,1,2,16,14,14,0,0,1,16,2m0-2A16,16,0,1,0,32,16,16,16,0,0,0,16,0Z"/><path class="cls-2" d="M14.79,14.46c.21-.55-.06-.82-.31-.82-1.13,0-2.6,2.66-3.14,2.66a.43.43,0,0,1-.4-.4c0-.55,1.34-1.83,1.74-2.23a6.77,6.77,0,0,1,4.58-2c1.31,0,2.72.79,1.62,3.76l-2.2,6A5.84,5.84,0,0,0,16.17,23a.39.39,0,0,0,.37.43c.92,0,2.6-2.6,3-2.6a.44.44,0,0,1,.37.46c0,.89-3.57,4.67-6.66,4.67-1.1,0-1.86-.52-1.86-1.68a15.5,15.5,0,0,1,1.25-4.49Zm1.65-6A2.5,2.5,0,0,1,18.95,6a2,2,0,0,1,2.11,2.08,2.47,2.47,0,0,1-2.53,2.44A2,2,0,0,1,16.44,8.44Z"/></svg>