<?xml version="1.0" encoding="utf-8"?>
<!-- Generator: Adobe Illustrator 21.0.2, SVG Export Plug-In . SVG Version: 6.00 Build 0)  -->
<svg version="1.1" id="Layer_1" xmlns="http://www.w3.org/2000/svg" xmlns:xlink="http://www.w3.org/1999/xlink" x="0px" y="0px"
	 viewBox="0 0 720 210" style="enable-background:new 0 0 720 210;" xml:space="preserve">
<style type="text/css">
	.st0{fill:#FFFFFF;}
</style>
<g>
	<g>
		<g>
			<g>
				<path class="st0" d="M112,82c-0.6,3.5-4.3,5.7-4.3,5.7s-2.7-3.4-2-6.9c0.6-3.5,4.3-5.7,4.3-5.7S112.6,78.5,112,82z"/>
			</g>
			<g>
				<path class="st0" d="M95.5,82.7c1.8,3.1,0.4,7.1,0.4,7.1s-4.2-0.9-6-3.9s-0.4-7.1-0.4-7.1S93.7,79.6,95.5,82.7z"/>
			</g>
			<g>
				<path class="st0" d="M83.2,93.8c3.3,1.2,4.9,5.2,4.9,5.2s-3.8,2-7.1,0.8c-3.3-1.2-4.9-5.2-4.9-5.2S79.9,92.6,83.2,93.8z"/>
			</g>
			<g>
				<path class="st0" d="M81,110.2c3.3-1.2,7.1,0.8,7.1,0.8s-1.6,4-4.9,5.2c-3.3,1.2-7.1-0.8-7.1-0.8S77.7,111.5,81,110.2z"/>
			</g>
			<g>
				<path class="st0" d="M89.9,124.2c1.8-3.1,6-3.9,6-3.9s1.3,4.1-0.4,7.1c-1.8,3.1-6,3.9-6,3.9S88.2,127.3,89.9,124.2z"/>
			</g>
			<g>
				<path class="st0" d="M105.7,129.2c-0.6-3.5,2-6.9,2-6.9s3.6,2.3,4.3,5.7c0.6,3.5-2,6.9-2,6.9S106.3,132.7,105.7,129.2z"/>
			</g>
			<g>
				<path class="st0" d="M121,122.9c-2.7-2.3-2.8-6.6-2.8-6.6s4.3-0.6,7,1.7s2.8,6.6,2.8,6.6S123.7,125.2,121,122.9z"/>
			</g>
			<g>
				<path class="st0" d="M128.7,108.2c-3.5,0-6.4-3.2-6.4-3.2s2.9-3.2,6.4-3.2s6.4,3.2,6.4,3.2S132.2,108.2,128.7,108.2z"/>
			</g>
			<g>
				<path class="st0" d="M125.1,92.1c-2.7,2.3-7,1.7-7,1.7s0.1-4.3,2.8-6.6c2.7-2.3,7-1.7,7-1.7S127.8,89.8,125.1,92.1z"/>
			</g>
		</g>
		<g>
			<g>
				<path class="st0" d="M103.2,141.3c0.9-5.2-3.1-10.3-3.1-10.3s-5.5,3.4-6.4,8.6c-0.9,5.2,3.1,10.3,3.1,10.3
					S102.2,146.5,103.2,141.3z"/>
			</g>
			<g>
				<path class="st0" d="M80.2,131.9c4.1-3.4,4.3-9.8,4.3-9.8s-6.4-0.9-10.4,2.5c-4.1,3.4-4.3,9.8-4.3,9.8S76.1,135.3,80.2,131.9z"
					/>
			</g>
			<g>
				<path class="st0" d="M68.7,109.8c5.3,0,9.6-4.8,9.6-4.8s-4.3-4.8-9.6-4.8s-9.6,4.8-9.6,4.8S63.4,109.8,68.7,109.8z"/>
			</g>
			<g>
				<path class="st0" d="M74,85.6c4.1,3.4,10.4,2.5,10.4,2.5s-0.2-6.4-4.3-9.8c-4.1-3.4-10.4-2.5-10.4-2.5S70,82.2,74,85.6z"/>
			</g>
			<g>
				<path class="st0" d="M93.7,70.4c0.9,5.2,6.4,8.6,6.4,8.6s4-5.1,3.1-10.3s-6.4-8.6-6.4-8.6S92.8,65.2,93.7,70.4z"/>
			</g>
			<g>
				<path class="st0" d="M118.5,71.5c-2.7,4.6-0.6,10.7-0.6,10.7s6.3-1.3,9-5.9c2.7-4.6,0.6-10.7,0.6-10.7S121.2,66.9,118.5,71.5z"
					/>
			</g>
			<g>
				<path class="st0" d="M136.9,88.2c-5,1.8-7.4,7.8-7.4,7.8s5.7,3,10.7,1.2s7.4-7.8,7.4-7.8S141.9,86.4,136.9,88.2z"/>
			</g>
			<g>
				<path class="st0" d="M140.2,112.8c-5-1.8-10.7,1.2-10.7,1.2s2.4,6,7.4,7.8c5,1.8,10.7-1.2,10.7-1.2S145.1,114.7,140.2,112.8z"/>
			</g>
			<g>
				<path class="st0" d="M126.8,133.8c-2.7-4.6-9-5.9-9-5.9s-2,6.1,0.6,10.7c2.7,4.6,9,5.9,9,5.9S129.5,138.4,126.8,133.8z"/>
			</g>
		</g>
		<g>
			<g>
				<path class="st0" d="M121.2,53.1c-1.4,7.8-9.6,12.9-9.6,12.9s-6-7.6-4.6-15.4s9.6-12.9,9.6-12.9S122.5,45.3,121.2,53.1z"/>
			</g>
			<g>
				<path class="st0" d="M83.9,54.7c4,6.9,1,16.1,1,16.1s-9.5-2-13.4-8.9c-4-6.9-1-16.1-1-16.1S79.9,47.8,83.9,54.7z"/>
			</g>
			<g>
				<path class="st0" d="M56.4,79.8c7.5,2.7,11.1,11.7,11.1,11.7s-8.5,4.6-16,1.8S40.4,81.6,40.4,81.6S48.9,77.1,56.4,79.8z"/>
			</g>
			<g>
				<path class="st0" d="M51.5,116.7c7.5-2.7,16,1.8,16,1.8s-3.6,9-11.1,11.7c-7.5,2.7-16-1.8-16-1.8S44,119.5,51.5,116.7z"/>
			</g>
			<g>
				<path class="st0" d="M71.5,148.2c4-6.9,13.4-8.9,13.4-8.9s3,9.2-1,16.1s-13.4,8.9-13.4,8.9S67.5,155.1,71.5,148.2z"/>
			</g>
			<g>
				<path class="st0" d="M107,159.5c-1.4-7.8,4.6-15.4,4.6-15.4s8.2,5.1,9.6,12.9c1.4,7.8-4.6,15.4-4.6,15.4S108.4,167.3,107,159.5z
					"/>
			</g>
			<g>
				<path class="st0" d="M141.4,145.3c-6.1-5.1-6.4-14.8-6.4-14.8s9.6-1.4,15.7,3.7c6.1,5.1,6.4,14.8,6.4,14.8
					S147.5,150.4,141.4,145.3z"/>
			</g>
			<g>
				<path class="st0" d="M158.7,112.2c-8,0-14.4-7.2-14.4-7.2s6.4-7.2,14.4-7.2s14.4,7.2,14.4,7.2S166.6,112.2,158.7,112.2z"/>
			</g>
			<g>
				<path class="st0" d="M150.7,75.8c-6.1,5.1-15.7,3.7-15.7,3.7s0.3-9.7,6.4-14.8s15.7-3.7,15.7-3.7S156.8,70.7,150.7,75.8z"/>
			</g>
		</g>
		<g>
			<g>
				<path class="st0" d="M101.3,186.7c2.1-11.7-6.9-23.1-6.9-23.1s-12.3,7.6-14.4,19.4s6.9,23.1,6.9,23.1S99.2,198.4,101.3,186.7z"
					/>
			</g>
			<g>
				<path class="st0" d="M49.6,165.4c9.1-7.7,9.6-22.2,9.6-22.2s-14.4-2.1-23.5,5.6c-9.1,7.7-9.6,22.2-9.6,22.2S40.4,173,49.6,165.4
					z"/>
			</g>
			<g>
				<path class="st0" d="M23.7,115.8c11.9,0,21.6-10.8,21.6-10.8s-9.7-10.8-21.6-10.8S2.1,105,2.1,105S11.8,115.8,23.7,115.8z"/>
			</g>
			<g>
				<path class="st0" d="M35.7,61.2c9.1,7.7,23.5,5.6,23.5,5.6s-0.5-14.5-9.6-22.2s-23.5-5.6-23.5-5.6S26.6,53.6,35.7,61.2z"/>
			</g>
			<g>
				<path class="st0" d="M80,27.1c2.1,11.7,14.4,19.4,14.4,19.4s9-11.4,6.9-23.1S86.9,4,86.9,4S77.9,15.4,80,27.1z"/>
			</g>
			<g>
				<path class="st0" d="M135.8,29.5c-6,10.3-1.4,24.1-1.4,24.1s14.2-3,20.2-13.3s1.4-24.1,1.4-24.1S141.8,19.2,135.8,29.5z"/>
			</g>
			<g>
				<path class="st0" d="M177.1,67.2c-11.2,4.1-16.6,17.5-16.6,17.5s12.8,6.8,24,2.8c11.2-4.1,16.6-17.5,16.6-17.5
					S188.3,63.1,177.1,67.2z"/>
			</g>
			<g>
				<path class="st0" d="M184.5,122.6c-11.2-4.1-24,2.8-24,2.8s5.4,13.5,16.6,17.5c11.2,4.1,24-2.8,24-2.8S195.7,126.7,184.5,122.6z
					"/>
			</g>
			<g>
				<path class="st0" d="M154.5,169.8c-6-10.3-20.2-13.3-20.2-13.3s-4.5,13.8,1.4,24.1c6,10.3,20.2,13.3,20.2,13.3
					S160.5,180.1,154.5,169.8z"/>
			</g>
		</g>
	</g>
	<g>
		<g>
			<path class="st0" d="M274,112.6L274,112.6c0,3.4,1.3,6.2,3.7,7.3c1.6,0.8,3.4,1.2,8,1.2h33.7c7.7,0,10.8-2.2,10.8-7.5
				c0-6.5-3.1-7.4-22.3-7.6l-21.2-0.4c-20.2-0.4-27.1-1.3-32.8-5.4c-4.8-3.7-6.8-9.8-6.8-21.5c0-12,1.9-17.5,7.7-21.5
				c6.9-4.8,12.2-5.7,36.6-5.7c37.8,0,41,0.1,47.8,2.1c4.4,1.2,8.8,4.1,10.9,7.1c2.4,3.4,3.6,8.2,3.6,15.7v1.5h-26.4l0,0
				c-0.4-4.8-3.3-6.8-10.6-6.8h-30.7c-8.7,0-12.1,2.1-12.1,7.3c0,2.5,1,4.5,2.8,5.3c2.5,1.1,5,1.2,20.2,1.6l19.7,0.4
				c19.2,0.2,22.7,0.7,27.9,2.9c9.3,3.6,12.8,10.5,12.8,24.9c0,13.8-2.7,19.7-11.2,23.6c-6.3,2.9-14.3,3.9-31.4,3.9
				c-50.7,0-52.6-0.1-59.5-5c-6.2-4.2-7.9-9.1-7.9-22.9v-0.4H274z"/>
			<path class="st0" d="M373.6,52.4h95.7v20.4h-68.8v13.8h65.2v18.1h-65.2v14.1h70.3v20.9h-97.1V52.4z"/>
			<path class="st0" d="M486.9,52.4h95.7v20.4h-68.8v13.8H579v18.1h-65.2v14.1h70.3v20.9h-97.1V52.4z"/>
			<path class="st0" d="M600.2,52.4h78c10.8,0,13.5,0.1,18.1,1.5c8.6,2.1,14,6,17.7,12.8c2.8,5.2,3.9,11.7,3.9,25.4
				c0,25.4-0.7,30.4-5,36.6c-5.1,7.7-15,11.1-31.9,11.1h-80.8V52.4z M627.1,117.5h47.4c6.5,0,9.7-0.7,12.2-3.1
				c2.9-2.7,3.6-6.2,3.6-18.5c0-12.6-0.7-15.7-3.9-18.5c-2.3-1.8-6.8-2.9-12.1-2.9h-47.3V117.5z"/>
		</g>
		<g>
			<path class="st0" d="M250.6,183h-3.3v-24.9h3.3V183z"/>
			<path class="st0" d="M264.3,158.1h5l22.8,22.2v-22.2h3.3V183h-5l-22.8-22.1V183h-3.3V158.1z"/>
			<path class="st0" d="M308.9,158.1h20c8.6,0,10.7,2.5,10.7,12.3c0,6-0.8,8.8-3.1,10.7c-1.5,1.2-4,1.8-6.9,1.8h-20.7V158.1z
				 M312.2,180.2H329c5.9,0,7.3-1.8,7.3-9.7c0-7.8-1.2-9.7-6.5-9.7h-17.5V180.2z"/>
			<path class="st0" d="M355.5,158.1V176c0,3.5,1.1,4.6,5.3,4.6h11.2c4.9,0,6.3-0.8,6.3-4v-18.4h3.3v18.6c0,2.6-0.6,4-2.2,5.1
				c-0.9,0.6-2.4,1.1-4,1.2c-1.1,0.1-3.2,0.1-8.3,0.1c-6.1,0-9.3-0.1-10.7-0.5c-3-0.8-4.3-2.8-4.3-6.5v-18.2H355.5z"/>
			<path class="st0" d="M397.1,175.1v1c0,3.6,1.2,4.4,6.5,4.4h8.7c5.7,0,7-0.9,7-4.6c0-1.9-0.3-2.8-1.3-3.3c-0.8-0.5-2-0.7-3.6-0.7
				h-8.1c-5.3,0-7.8-0.3-9.4-1.1c-2.1-1.1-3-2.8-3-5.9c0-3.1,0.8-4.7,2.8-5.9c1.8-1,3.7-1.2,9.6-1.2c8.7,0,11.1,0.3,13.1,1.4
				c1.8,1,2.5,2.5,2.5,5.4v0.6h-3.1c0-2.2-0.2-3-1.1-3.5c-1.2-0.9-3.2-1.2-10.1-1.2c-8.9,0-10.4,0.6-10.4,4.3c0,3.3,1.2,4.2,6.1,4.2
				h8.5c4.7,0,6.5,0.3,8.1,1.2c2,1.1,2.7,2.6,2.7,5.8c0,2.9-0.6,4.4-1.9,5.5c-1.9,1.4-4.2,1.8-9.6,1.8h-6.4c-4.4,0-6.3-0.3-7.8-1.2
				c-2-1.1-2.8-2.6-2.8-5.8v-1.1H397.1z"/>
			<path class="st0" d="M431.7,158.1h28.5v2.8h-12.6V183h-3.3v-22.1h-12.6V158.1z"/>
			<path class="st0" d="M470.5,158.1h19.1c3.7,0,5.5,0.3,6.8,1.1c1.8,1.2,2.3,2.6,2.3,6.7c0,3.1-0.3,4.1-1.6,4.9
				c-0.9,0.6-1.9,0.9-3.1,1v0.1c1.4,0.1,2.5,0.6,3.3,1.4c1,1.1,1.1,1.5,1.1,6.1c0,0.7,0,1.9,0,3.4h-3.1v-5.7c0-3-1.3-4.1-4.8-4.1
				h-16.7v9.8h-3.3V158.1z M473.8,170.4h16.8c1.5,0,3-0.3,3.7-0.8c0.9-0.8,1.2-1.6,1.2-4.1c0-4-1-4.7-6.4-4.7h-15.3V170.4z"/>
			<path class="st0" d="M515.2,183h-3.3v-24.9h3.3V183z"/>
			<path class="st0" d="M528.9,158.1h24.4v2.8h-21.1v7.9h20.3v2.6h-20.3v8.8h21.2v2.8h-24.5V158.1z"/>
			<path class="st0" d="M568,175.1v1c0,3.6,1.2,4.4,6.5,4.4h8.7c5.7,0,7-0.9,7-4.6c0-1.9-0.3-2.8-1.3-3.3c-0.8-0.5-2-0.7-3.6-0.7
				h-8.1c-5.3,0-7.8-0.3-9.4-1.1c-2.1-1.1-3-2.8-3-5.9c0-3.1,0.8-4.7,2.8-5.9c1.8-1,3.7-1.2,9.6-1.2c8.7,0,11.1,0.3,13.1,1.4
				c1.8,1,2.5,2.5,2.5,5.4v0.6h-3.1c0-2.2-0.2-3-1.1-3.5c-1.2-0.9-3.2-1.2-10.1-1.2c-8.9,0-10.4,0.6-10.4,4.3c0,3.3,1.2,4.2,6.1,4.2
				h8.5c4.7,0,6.5,0.3,8.1,1.2c2,1.1,2.7,2.6,2.7,5.8c0,2.9-0.6,4.4-1.9,5.5c-1.9,1.4-4.2,1.8-9.6,1.8h-6.4c-4.4,0-6.3-0.3-7.8-1.2
				c-2-1.1-2.8-2.6-2.8-5.8v-1.1H568z"/>
			<path class="st0" d="M629.4,158.1h3.3v22H652v2.9h-22.6V158.1z"/>
			<path class="st0" d="M651.9,158.1h28.5v2.8h-12.6V183h-3.3v-22.1h-12.6V158.1z"/>
			<path class="st0" d="M687.2,158.1h20c8.6,0,10.7,2.5,10.7,12.3c0,6-0.8,8.8-3.1,10.7c-1.5,1.2-4,1.8-6.9,1.8h-20.7V158.1z
				 M690.5,180.2h16.8c5.9,0,7.3-1.8,7.3-9.7c0-7.8-1.2-9.7-6.5-9.7h-17.5V180.2z"/>
		</g>
	</g>
</g>
</svg>
