<?xml version="1.0" encoding="utf-8"?>
<!-- Generator: Adobe Illustrator 21.0.2, SVG Export Plug-In . SVG Version: 6.00 Build 0)  -->
<svg version="1.1" id="Layer_1" xmlns="http://www.w3.org/2000/svg" xmlns:xlink="http://www.w3.org/1999/xlink" x="0px" y="0px"
	 viewBox="0 0 170 24" style="enable-background:new 0 0 170 24;" xml:space="preserve">
<style type="text/css">
	.st0{fill:#FFFFFF;}
</style>
<path class="st0" d="M6.7,15.7v0.4c0,0.8,0.3,1.5,0.9,1.8c0.4,0.2,0.8,0.3,2,0.3H18c1.9,0,2.7-0.5,2.7-1.9c0-1.6-0.8-1.8-5.5-1.9
	l-5.2-0.1c-5-0.1-6.7-0.3-8.1-1.4c-1.2-0.9-1.7-2.4-1.7-5.3c0-3,0.5-4.3,1.9-5.3c1.7-1.2,3-1.4,9.1-1.4c9.4,0,10.2,0,11.8,0.5
	c1.1,0.3,2.2,1,2.7,1.8c0.6,0.8,0.9,2,0.9,3.9V8H20V7.5c-0.1-1.2-0.8-1.7-2.6-1.7H9.7c-2.2,0-3,0.5-3,1.8c0,0.6,0.2,1.1,0.7,1.3
	c0.6,0.3,1.2,0.3,5,0.4l4.9,0.1c4.8,0.1,5.6,0.2,6.9,0.7c2.3,0.9,3.2,2.6,3.2,6.2c0,3.4-0.7,4.9-2.8,5.8c-1.6,0.7-3.5,1-7.8,1
	c-12.6,0-13,0-14.8-1.2c-1.5-1-1.9-2.2-1.9-5.7v-0.5H6.7z"/>
<path class="st0" d="M37.9,1.2v12.3c0,2.9,1,4,3.6,4h6.9c2.8,0,3.5-0.9,3.5-3.8V1.2h6.7v13.4c0,3.6-0.4,5-1.9,6.4
	c-0.8,0.8-2.2,1.4-3.5,1.7c-1.2,0.2-5.1,0.4-9.2,0.4c-4.9,0-7.1-0.2-8.5-0.8c-3.1-1.2-4.2-3.4-4.2-7.8V1.2H37.9z"/>
<path class="st0" d="M63.2,1.2h20c2.1,0,4,0.5,5.1,1.3c1.3,1,1.9,2.4,1.9,4.7c0,2.7-0.9,4-3.2,4.6v0.1c2.9,0.4,4,1.8,4,5
	c0,2.4-0.8,4.1-2.2,5.1c-0.9,0.6-2.6,0.9-4.9,0.9H63.2V1.2z M80.9,9.8c1.9,0,2.6-0.5,2.6-1.8c0-1.3-0.6-1.7-2.6-1.7H69.8v3.5H80.9z
	 M69.8,17.8h12c1.8,0,2.3-0.4,2.3-1.7c0-1.4-0.6-1.9-2.6-1.9H69.8V17.8z"/>
<path class="st0" d="M94.7,1.2h10.2l7.5,14l7.5-14h10.3v21.7h-6.4V7.1l-9,15.7h-5l-8.8-15.6v15.6h-6.4V1.2z"/>
<path class="st0" d="M141.7,1.2v21.7H135V1.2H141.7z"/>
<path class="st0" d="M154,22.8V6.6h-9.3V1.2h25.2v5.5h-9.3v16.2H154z"/>
</svg>
